<?xml version="1.0" encoding="utf-8"?>
<!-- Generator: Adobe Illustrator 24.2.1, SVG Export Plug-In . SVG Version: 6.00 Build 0)  -->
<svg version="1.1" id="Layer_1" xmlns="http://www.w3.org/2000/svg" xmlns:xlink="http://www.w3.org/1999/xlink" x="0px" y="0px"
	 viewBox="0 0 100 80" style="enable-background:new 0 0 100 80;" xml:space="preserve">
<style type="text/css">
	.st0{fill:#FF0000;}
	.st1{fill:#FFFFFF;}
	.st2{fill:#0A0A0A;}
</style>
<image style="overflow:visible;" width="947" height="459" xlink:href="화면 캡처 2022-07-07 092719.png"  transform="matrix(0.1056 0 0 0.1097 0 29.6615)">
</image>
<g>
	<path class="st0" d="M36.6,30.2c-0.4-1.4-1.5-2.4-2.8-2.8c-2.5-0.8-12.7-0.8-12.7-0.8s-10.1,0-12.5,0.7c-1.4,0.4-2.4,1.4-2.8,2.8
		C5,32.7,5,38,5,38s0,5.3,0.7,7.7c0.4,1.4,1.5,2.4,2.8,2.8c2.5,0.8,12.6,0.8,12.6,0.8s10.1,0,12.6-0.7c1.4-0.4,2.4-1.5,2.8-2.8
		c0.7-2.5,0.7-7.7,0.7-7.7S37.3,32.7,36.6,30.2z"/>
	<path class="st1" d="M17.9,42.8l8.4-4.8l-8.4-4.8C17.9,33.1,17.9,42.8,17.9,42.8z"/>
	<path class="st2" d="M42.8,42.2h2.9c-0.1,2.6,0.4,3.4,1.5,3.4c1,0,1.5-0.7,1.5-2.1c0-2.2-1.1-3.2-2.6-4.5c-2.4-2.2-3.5-3.4-3.5-6.4
		c0-2.9,1.3-4.6,4.7-4.6c3.3,0,4.6,1.9,4.1,5.8L48.6,34c0.1-2.6-0.2-3.7-1.4-3.7c-1.1,0-1.5,0.8-1.5,2.1c0,2,0.8,2.6,2.6,4.3
		c2.3,2.1,3.5,3.3,3.5,6.2c0,3.7-1.4,5.1-4.7,5.1C43.6,47.9,42.3,46.1,42.8,42.2z M59.3,47.3c-0.9,0.5-2.2,0.6-2.9,0.6
		c-2.1,0-2.4-1-2.4-3.6V36h-1.1v-2.4h1.3l0.4-4.2h2.3v4.2h2.2V36h-2.1v7.8c0,1.3,0.2,1.6,0.7,1.6c0.5,0,0.8-0.1,1.2-0.2
		C58.8,45.2,59.3,47.3,59.3,47.3z M69.4,33.5v14.2h-2.5l-0.3-1.7h-0.1c-0.8,1.4-1.8,2-3,2c-1.9,0-2.7-1.2-2.7-3.8V33.5h3.2V44
		c0,1.2,0.3,1.8,0.9,1.8c0.6,0,1.1-0.4,1.3-0.9V33.5C66.2,33.5,69.4,33.5,69.4,33.5z M80,27.5v20.2h-2.4l-0.4-2H77
		c-0.5,1.3-1.6,2.3-3,2.3c-2.3,0-3-1.6-3-6.2v-2.3c0-4.3,0.9-6.2,3.1-6.2c1.1,0,2.2,0.6,2.7,1.5h0.1c-0.1-1.2-0.1-2.1-0.1-3.1v-4.1
		H80L80,27.5z M76.8,44.3v-8c-0.3-0.5-0.8-0.8-1.2-0.8c-1,0-1.3,0.9-1.3,4.1v1.8c0,3.2,0.3,4.1,1.2,4.1C76,45.6,76.7,45.1,76.8,44.3
		z M81.6,29.8c0-1.5,0.6-2,1.7-2c1.2,0,1.7,0.5,1.7,2c0,1.6-0.6,2-1.7,2C82.1,31.8,81.6,31.5,81.6,29.8z M81.7,33.5h3v14.2h-3V33.5z
		 M86.3,41.6v-2.1c0-4.6,1.3-6.3,4.4-6.3c3.1,0,4.3,1.8,4.3,6.3v2.1c0,4.4-1.1,6.3-4.4,6.3C87.3,47.9,86.3,46.1,86.3,41.6z
		 M91.8,42.8v-4.4c0-2-0.3-2.9-1.2-2.9c-0.9,0-1.1,1-1.1,2.9v4.4c0,2.1,0.3,2.9,1.1,2.9C91.5,45.7,91.8,44.8,91.8,42.8z"/>
</g>
</svg>
